PathFileType	4	(X/Y/Z)	 s03c0302.trc
DataRate	CameraRate	NumFrames	NumMarkers	Units	OrigDataRate	OrigDataStartFrame	OrigNumFrames
200	200	4	52	mm	200	1001	2000
Frame#	Time	racr			lacr			c7			jug			rlel			rdr			llel			ldr			s2			lic			ric			lasi			rasi			rpsi			lpsi			rgt			lgt			rth1			rth2			rth3			rth4			rlfc			rmfc			rsh1			rsh2			rsh3			rsh4			rlmal			rmmal			rcal			rtoe			rmt5			rmt1			lth1			lth2			lth4			lth3			llfc			lmfc			lsh1			lsh2			lsh3			lsh4			llmal			lmmal			lcal			ltoe			lmt1			lmt5			SBIKE			LBIKE			RBIKE			
		X1	Y1	Z1	X2	Y2	Z2	X3	Y3	Z3	X4	Y4	Z4	X5	Y5	Z5	X6	Y6	Z6	X7	Y7	Z7	X8	Y8	Z8	X9	Y9	Z9	X10	Y10	Z10	X11	Y11	Z11	X12	Y12	Z12	X13	Y13	Z13	X14	Y14	Z14	X15	Y15	Z15	X16	Y16	Z16	X17	Y17	Z17	X18	Y18	Z18	X19	Y19	Z19	X20	Y20	Z20	X21	Y21	Z21	X22	Y22	Z22	X23	Y23	Z23	X24	Y24	Z24	X25	Y25	Z25	X26	Y26	Z26	X27	Y27	Z27	X28	Y28	Z28	X29	Y29	Z29	X30	Y30	Z30	X31	Y31	Z31	X32	Y32	Z32	X33	Y33	Z33	X34	Y34	Z34	X35	Y35	Z35	X36	Y36	Z36	X37	Y37	Z37	X38	Y38	Z38	X39	Y39	Z39	X40	Y40	Z40	X41	Y41	Z41	X42	Y42	Z42	X43	Y43	Z43	X44	Y44	Z44	X45	Y45	Z45	X46	Y46	Z46	X47	Y47	Z47	X48	Y48	Z48	X49	Y49	Z49	X50	Y50	Z50	X51	Y51	Z51	X52	Y52	Z52	
1001	5.0050	765.409032	1423.431368	-119.468437	724.574881	1445.213155	-437.878617	698.725008	1525.134434	-271.869740	686.756294	1350.629643	-271.970905	667.328068	1190.449571	29.243222	760.460051	932.485320	-32.432193	613.046983	1184.394205	-512.440781	750.939682	941.932819	-410.483335	150.484680	1305.211751	-217.148743	308.240667	1308.620570	-415.255732	332.108784	1323.128356	-47.716592	321.459562	1233.559080	-371.459028	349.330621	1248.822775	-92.171288	187.864900	1354.371560	-179.660021	182.923237	1350.885359	-258.215154	267.258085	1225.325100	-23.992992	245.324451	1196.056468	-417.532234	345.940901	1081.826028	-3.013121	414.255588	1025.123469	-3.394632	447.094792	946.279180	0.652811	441.860174	1044.755729	-16.452303	491.355279	822.638871	-11.987597	491.571753	799.013467	-131.648428	358.402168	716.708392	4.766496	302.057247	650.051504	-15.852584	219.339806	620.368670	-22.582732	322.601489	628.682921	-38.974241	108.166978	553.695776	-52.839638	141.628231	543.221775	-132.711924	42.517959	574.758349	-94.159925	205.897026	310.951664	-115.229611	127.263325	396.089113	-39.572137	157.165950	392.695060	-152.243984	315.382868	1048.834588	-437.817417	372.277499	983.366266	-439.127594	404.994410	999.809393	-434.976742	389.838516	896.463378	-428.991586	462.090240	786.159850	-408.388260	463.384498	772.073603	-288.504205	392.796057	626.895502	-436.572051	386.344736	542.394701	-417.482504	336.824376	468.045334	-418.248696	416.390563	534.704658	-395.616761	287.264660	351.753800	-407.498905	NaN	NaN	NaN	215.361175	309.021544	-362.810255	524.182178	269.900825	-352.652828	429.007135	278.976672	-312.635683	405.155728	260.663965	-429.114478	-213.164521	946.309069	-230.795394	-6.029301	84.008327	-435.025125	-11.510302	81.313649	-34.628596	
1002	5.0100	764.744941	1423.423409	-118.024593	727.007702	1442.515479	-435.765932	699.148256	1524.057343	-271.103672	687.643995	1349.707863	-269.789440	667.995442	1189.585913	29.923203	760.582596	932.045062	-32.284057	613.361403	1182.586425	-512.550550	750.769780	941.238172	-410.375775	150.625919	1302.445639	-219.474178	309.723238	1303.904736	-416.677944	332.506629	1320.765079	-49.360729	322.893489	1229.444423	-372.614179	349.813445	1246.967438	-93.894931	187.180348	1352.603725	-180.217451	183.381931	1348.019117	-262.618450	268.574814	1223.740443	-24.777796	245.589073	1191.221794	-418.345567	348.496855	1082.871417	-2.423761	417.995632	1027.476033	-2.041224	452.199390	949.218095	2.670856	445.153318	1047.486659	-15.661544	499.187753	826.970289	-9.617953	498.959493	803.031168	-129.527114	364.653221	722.419455	6.379226	307.405442	656.787001	-14.795551	224.384438	628.363670	-21.902629	327.788855	635.241367	-37.856221	112.211492	563.591620	-52.751598	145.884599	553.007166	-132.728926	46.268070	584.397530	-94.435826	210.776703	321.377650	-115.423740	131.891114	406.238957	-39.591833	161.758534	402.840821	-152.285964	313.044543	1042.727359	-437.465698	368.407974	976.024644	-438.871038	401.533626	991.640894	-434.585350	383.956537	888.716161	-427.592488	454.419645	777.772732	-406.734651	455.756558	763.985961	-287.587084	386.200171	618.368305	-435.751323	380.666306	534.809818	-419.068069	331.791912	458.863985	-418.062344	411.254856	527.845357	-397.856445	282.953853	341.229573	-406.531965	NaN	NaN	NaN	211.292434	299.980578	-363.307337	519.892033	258.844278	-352.550415	424.290516	268.064337	-311.664417	400.984379	250.303833	-429.140214	-213.122727	946.283692	-231.178335	-6.014954	83.940080	-435.041545	-11.475359	81.289179	-34.649005	
1003	5.0150	763.984143	1423.727314	-116.405481	729.319497	1440.269411	-434.330910	699.296039	1523.275921	-270.368977	688.510423	1348.980863	-267.832854	668.429791	1189.093012	30.543302	760.570865	931.823618	-32.108441	613.755850	1181.129105	-512.612449	750.580993	940.161073	-410.236873	150.607175	1299.603246	-221.271774	311.219059	1299.273126	-418.105726	332.825610	1318.630687	-51.186302	324.513669	1225.303280	-373.621248	350.315822	1245.323566	-95.606562	186.484166	1349.779181	-178.807095	184.172548	1343.825310	-261.975871	269.891567	1222.164248	-25.642773	246.286522	1186.224340	-419.269036	351.078739	1084.175842	-2.077356	421.724951	1030.301034	-0.952802	457.557216	952.680770	4.441201	448.423071	1050.697393	-15.099214	506.927916	831.915122	-7.323761	506.121111	805.915771	-125.394320	371.095814	728.235058	7.976649	313.016843	663.488202	-13.779151	229.592524	636.229990	-21.315536	333.166007	641.783099	-36.882894	116.604027	573.154390	-52.821534	150.417051	562.653642	-132.764103	50.335407	593.650166	-94.633426	216.341151	331.757282	-115.562631	137.029946	416.139630	-39.774245	163.994750	411.472360	-154.845679	310.722022	1036.475667	-437.211893	364.517079	968.559583	-438.239254	398.031268	983.489127	-434.240184	378.206545	881.047692	-426.111603	447.104972	769.458832	-404.533659	446.750138	756.307761	-285.484578	379.484825	610.156208	-434.974033	374.380229	526.742362	-418.894446	326.365433	450.202351	-417.886236	405.401686	519.822168	-397.787190	278.278822	332.206625	-406.809097	NaN	NaN	NaN	206.721639	291.540054	-363.832980	515.031589	247.818745	-352.375567	419.079698	257.680413	-310.758034	396.119688	240.244848	-429.198570	-213.090527	946.260898	-231.324277	-5.995509	83.884790	-435.087150	-11.483815	81.281376	-34.681386	
1004	5.0200	762.975318	1424.392342	-114.620639	731.494875	1438.301097	-432.986949	699.266502	1522.793860	-269.601527	689.375733	1348.510139	-265.957467	668.178516	1188.756331	31.664125	760.069706	931.688647	-32.285407	614.416593	1180.231705	-512.477676	750.321279	939.042978	-409.821032	150.856234	1296.239834	-222.456443	312.707861	1294.795526	-419.467870	332.804483	1316.555607	-52.913973	326.287945	1221.320014	-374.574560	350.804447	1243.708810	-97.235827	185.912490	1346.998340	-178.897839	184.639459	1340.652921	-265.415849	271.065040	1220.564216	-26.599513	246.990237	1181.437379	-419.912156	353.727075	1085.770504	-1.855918	425.576760	1033.524617	-0.175541	463.183338	956.746840	5.920727	451.849817	1054.278449	-14.927181	514.518931	837.363533	-5.136650	513.097714	809.192180	-119.604896	377.526385	734.072709	9.397995	319.845995	670.610903	-11.955602	235.033006	644.024060	-20.788074	338.760649	648.438610	-36.002275	121.352122	582.444332	-52.904602	155.388512	572.075789	-132.863040	54.798500	602.571909	-94.837552	222.623387	341.662961	-115.721558	142.781707	425.836378	-39.974531	168.894317	421.994437	-154.616028	308.340085	1030.226318	-437.014338	360.665298	961.218913	-437.566052	394.554957	975.455095	-433.968445	372.543055	873.482953	-424.541220	439.419532	761.680930	-402.938001	438.964260	748.285933	-284.102725	372.932025	602.586650	-435.085580	368.013324	518.539956	-417.713000	320.663702	441.968693	-417.757714	398.705669	510.270463	-394.445574	273.007670	323.707141	-407.079645	NaN	NaN	NaN	201.665066	283.643105	-364.278910	509.635500	237.139731	-352.270638	413.764833	248.037823	-310.879619	390.596539	230.530909	-429.352785	-213.088718	946.235276	-231.471920	-6.003027	83.823035	-435.104901	-11.483351	81.275691	-34.685291	
